<svg width="786" height="321" viewBox="0 0 786 321" fill="none" xmlns="http://www.w3.org/2000/svg">
<rect x="8" y="8" width="770" height="305" fill="black" stroke="#00FF00" stroke-width="14.7502"/>
<path d="M214.718 78.3148V84.1574H208.875V90H203.032V60.7871H208.875V78.3148H214.718ZM232.245 60.7871V90H226.403V72.4723H220.56V66.6297H226.403V60.7871H232.245ZM220.56 72.4723V78.3148H214.718V72.4723H220.56ZM261.473 66.6297H243.946V60.7871H261.473V66.6297ZM243.946 66.6297V84.1574H238.103V66.6297H243.946ZM267.316 66.6297V72.4723H261.473V66.6297H267.316ZM261.473 84.1574V78.3148H267.316V84.1574H261.473ZM243.946 84.1574H261.473V90H243.946V84.1574ZM296.544 66.6297H279.016V60.7871H296.544V66.6297ZM279.016 66.6297V90H273.174V66.6297H279.016ZM302.387 66.6297V90H296.544V66.6297H302.387ZM314.087 66.6297V60.7871H331.615V66.6297H314.087ZM314.087 84.1574H308.245V66.6297H314.087V84.1574ZM337.457 66.6297V84.1574H331.615V66.6297H337.457ZM331.615 84.1574V90H314.087V84.1574H331.615ZM370.588 66.6297H353.06V60.7871H370.588V66.6297ZM353.06 66.6297V84.1574H347.218V66.6297H353.06ZM376.431 66.6297V90H370.588V66.6297H376.431ZM347.218 84.1574V90H341.375V84.1574H347.218ZM411.479 72.4723V84.1574H405.636V78.3148H388.108V84.1574H382.266V60.7871H388.108V72.4723H411.479ZM405.636 84.1574V90H388.108V84.1574H405.636ZM440.707 66.6297H423.179V60.7871H440.707V66.6297ZM423.179 66.6297V72.4723H417.336V66.6297H423.179ZM446.549 66.6297V72.4723H440.707V66.6297H446.549ZM440.707 72.4723V78.3148H429.022V72.4723H440.707ZM423.179 84.1574H417.336V78.3148H423.179V84.1574ZM440.707 78.3148H446.549V84.1574H440.707V78.3148ZM440.707 84.1574V90H423.179V84.1574H440.707ZM458.25 72.4723H452.407V60.7871H458.25V72.4723ZM481.62 60.7871V84.1574H475.778V78.3148H458.25V72.4723H475.778V60.7871H481.62ZM475.778 84.1574V90H452.407V84.1574H475.778ZM493.32 54.9445V43.2593H499.163V49.1019H505.006V43.2593H510.848V54.9445H493.32ZM499.163 78.3148V84.1574H493.32V90H487.478V60.7871H493.32V78.3148H499.163ZM516.691 60.7871V90H510.848V72.4723H505.006V66.6297H510.848V60.7871H516.691ZM505.006 72.4723V78.3148H499.163V72.4723H505.006ZM549.822 60.7871V66.6297H538.136V90H532.294V66.6297H520.609V60.7871H549.822ZM582.952 60.7871V66.6297H559.582V60.7871H582.952ZM559.582 66.6297V72.4723H577.11V78.3148H559.582V84.1574H553.739V66.6297H559.582ZM559.582 84.1574H582.952V90H559.582V84.1574ZM180.682 117.472V123.315H163.154V135H157.311V105.787H163.154V117.472H180.682ZM186.524 105.787V117.472H180.682V105.787H186.524ZM180.682 123.315H186.524V135H180.682V123.315ZM221.595 105.787V135H215.752V123.315H198.224V135H192.382V105.787H198.224V117.472H215.752V105.787H221.595ZM233.295 111.63V105.787H250.823V111.63H233.295ZM233.295 129.157H227.453V111.63H233.295V129.157ZM256.665 111.63V129.157H250.823V111.63H256.665ZM250.823 129.157V135H233.295V129.157H250.823ZM285.894 111.63H268.366V105.787H285.894V111.63ZM268.366 111.63V135H262.523V111.63H268.366ZM291.736 111.63V135H285.894V111.63H291.736ZM320.964 117.472V123.315H303.437V135H297.594V105.787H303.437V117.472H320.964ZM326.807 105.787V117.472H320.964V105.787H326.807ZM320.964 123.315H326.807V135H320.964V123.315ZM344.35 123.315V129.157H338.507V135H332.665V105.787H338.507V123.315H344.35ZM361.878 105.787V135H356.035V117.472H350.192V111.63H356.035V105.787H361.878ZM350.192 117.472V123.315H344.35V117.472H350.192ZM396.933 111.63V105.787H414.461V111.63H396.933ZM420.303 111.63V135H414.461V129.157H396.933V135H391.091V111.63H396.933V123.315H414.461V111.63H420.303ZM430.056 129.157V140.843H424.214V129.157H430.056ZM480.684 129.157V135H457.314V105.787H480.684V111.63H463.157V129.157H480.684ZM486.527 111.63V129.157H480.684V111.63H486.527ZM554.69 129.157V140.843H548.848V135H519.635V140.843H513.792V129.157H519.635V111.63H525.477V129.157H543.005V111.63H525.477V105.787H548.848V129.157H554.69ZM587.783 111.63H570.255V105.787H587.783V111.63ZM570.255 111.63V129.157H564.413V111.63H570.255ZM593.626 111.63V135H587.783V111.63H593.626ZM564.413 129.157V135H558.57V129.157H564.413ZM628.674 105.787V135H622.831V123.315H611.146V129.157H605.303V123.315H599.461V111.63H605.303V117.472H622.831V111.63H605.303V105.787H628.674ZM605.303 129.157V135H599.461V129.157H605.303ZM125.109 162.472V168.315H107.581V180H101.738V150.787H107.581V162.472H125.109ZM130.951 150.787V162.472H125.109V150.787H130.951ZM125.109 168.315H130.951V180H125.109V168.315ZM142.651 156.63V150.787H160.179V156.63H142.651ZM142.651 174.157H136.809V156.63H142.651V174.157ZM166.022 156.63V174.157H160.179V156.63H166.022ZM160.179 174.157V180H142.651V174.157H160.179ZM201.092 150.787V180H195.25V168.315H177.722V180H171.88V150.787H177.722V162.472H195.25V150.787H201.092ZM234.223 150.787V156.63H222.538V180H216.696V156.63H205.01V150.787H234.223ZM267.354 156.63V168.315H243.984V180H238.141V150.787H261.511V156.63H243.984V162.472H261.511V156.63H267.354ZM279.054 156.63V150.787H296.582V156.63H279.054ZM279.054 174.157H273.212V156.63H279.054V174.157ZM302.425 156.63V174.157H296.582V156.63H302.425ZM296.582 174.157V180H279.054V174.157H296.582ZM335.556 156.63H318.028V150.787H335.556V156.63ZM318.028 156.63V174.157H312.185V156.63H318.028ZM341.398 156.63V180H335.556V156.63H341.398ZM312.185 174.157V180H306.343V174.157H312.185ZM376.446 150.787V180H370.603V168.315H358.918V174.157H353.076V168.315H347.233V156.63H353.076V162.472H370.603V156.63H353.076V150.787H376.446ZM353.076 174.157V180H347.233V174.157H353.076ZM429.029 162.472V168.315H411.501V180H405.659V150.787H411.501V162.472H429.029ZM434.872 150.787V162.472H429.029V150.787H434.872ZM429.029 168.315H434.872V180H429.029V168.315ZM446.572 156.63V150.787H464.1V156.63H446.572ZM446.572 174.157H440.73V156.63H446.572V174.157ZM469.943 156.63V174.157H464.1V156.63H469.943ZM464.1 174.157V180H446.572V174.157H464.1ZM505.013 156.63V168.315H481.643V180H475.8V150.787H499.171V156.63H481.643V162.472H499.171V156.63H505.013ZM516.714 156.63V150.787H534.241V156.63H516.714ZM540.084 156.63V180H534.241V174.157H516.714V180H510.871V156.63H516.714V168.315H534.241V156.63H540.084ZM575.155 150.787V156.63H551.784V162.472H575.155V174.157H569.312V168.315H551.784V174.157H545.942V150.787H575.155ZM569.312 174.157V180H551.784V174.157H569.312ZM608.285 156.63H590.758V150.787H608.285V156.63ZM590.758 156.63V174.157H584.915V156.63H590.758ZM614.128 156.63V180H608.285V156.63H614.128ZM584.915 174.157V180H579.073V174.157H584.915ZM625.806 144.945V139.102H631.648V144.945H625.806ZM637.491 144.945V139.102H643.333V144.945H637.491ZM649.176 150.787V156.63H625.806V150.787H649.176ZM625.806 156.63V162.472H643.333V168.315H625.806V174.157H619.963V156.63H625.806ZM625.806 174.157H649.176V180H625.806V174.157ZM666.719 162.472H660.876V180H655.034V150.787H660.876V156.63H666.719V162.472ZM684.247 150.787V180H678.404V162.472H672.561V156.63H678.404V150.787H684.247ZM672.561 162.472V168.315H666.719V162.472H672.561ZM115.42 213.315V219.157H109.578V225H103.735V195.787H109.578V213.315H115.42ZM132.948 195.787V225H127.105V207.472H121.263V201.63H127.105V195.787H132.948ZM121.263 207.472V213.315H115.42V207.472H121.263ZM185.531 201.63H168.004V195.787H185.531V201.63ZM168.004 201.63V225H162.161V201.63H168.004ZM191.374 201.63V225H185.531V201.63H191.374ZM226.445 201.63V213.315H203.074V225H197.232V195.787H220.602V201.63H203.074V207.472H220.602V201.63H226.445ZM238.145 201.63V195.787H255.673V201.63H238.145ZM238.145 219.157H232.302V201.63H238.145V219.157ZM261.515 201.63V219.157H255.673V201.63H261.515ZM255.673 219.157V225H238.145V219.157H255.673ZM296.586 195.787V201.63H273.216V207.472H296.586V219.157H290.743V213.315H273.216V219.157H267.373V195.787H296.586ZM290.743 219.157V225H273.216V219.157H290.743ZM331.657 195.787V201.63H308.286V195.787H331.657ZM308.286 201.63V207.472H325.814V213.315H308.286V219.157H302.444V201.63H308.286ZM308.286 219.157H331.657V225H308.286V219.157ZM366.727 201.63H349.2V195.787H366.727V201.63ZM349.2 201.63V219.157H343.357V201.63H349.2ZM372.57 201.63V225H366.727V201.63H372.57ZM343.357 219.157V225H337.514V219.157H343.357ZM440.711 219.157V230.843H434.868V225H405.655V230.843H399.813V219.157H405.655V201.63H411.498V219.157H429.025V201.63H411.498V195.787H434.868V219.157H440.711ZM473.803 201.63H456.276V195.787H473.803V201.63ZM456.276 201.63V219.157H450.433V201.63H456.276ZM479.646 201.63V225H473.803V201.63H479.646ZM450.433 219.157V225H444.59V219.157H450.433ZM514.694 195.787V225H508.851V213.315H497.166V219.157H491.323V213.315H485.481V201.63H491.323V207.472H508.851V201.63H491.323V195.787H514.694ZM491.323 219.157V225H485.481V219.157H491.323ZM573.12 195.787V201.63H561.434V225H555.592V201.63H543.907V195.787H573.12ZM582.88 201.63V195.787H600.408V201.63H582.88ZM582.88 219.157H577.038V201.63H582.88V219.157ZM606.25 201.63V219.157H600.408V201.63H606.25ZM600.408 219.157V225H582.88V219.157H600.408ZM641.321 195.787V201.63H617.951V195.787H641.321ZM617.951 201.63V225H612.108V201.63H617.951ZM651.081 201.63V195.787H668.609V201.63H651.081ZM651.081 219.157H645.239V201.63H651.081V219.157ZM674.452 201.63V219.157H668.609V201.63H674.452ZM668.609 219.157V225H651.081V219.157H668.609ZM684.205 219.157V230.843H678.362V219.157H684.205ZM159.198 252.472H153.355V240.787H159.198V252.472ZM182.568 240.787V270H176.726V258.315H159.198V252.472H176.726V240.787H182.568ZM215.699 240.787V246.63H204.014V270H198.171V246.63H186.486V240.787H215.699ZM225.459 246.63V240.787H242.987V246.63H225.459ZM225.459 264.157H219.617V246.63H225.459V264.157ZM248.83 246.63V264.157H242.987V246.63H248.83ZM242.987 264.157V270H225.459V264.157H242.987ZM283.9 240.787V246.63H260.53V252.472H283.9V264.157H278.058V258.315H260.53V264.157H254.688V240.787H283.9ZM278.058 264.157V270H260.53V264.157H278.058ZM318.971 252.472V264.157H313.129V258.315H295.601V264.157H289.758V240.787H295.601V252.472H318.971ZM330.656 240.787V270H324.814V240.787H330.656ZM313.129 264.157V270H295.601V264.157H313.129ZM383.232 246.63H365.704V240.787H383.232V246.63ZM365.704 246.63V264.157H359.862V246.63H365.704ZM389.075 246.63V252.472H383.232V246.63H389.075ZM383.232 264.157V258.315H389.075V264.157H383.232ZM365.704 264.157H383.232V270H365.704V264.157ZM422.205 240.787V246.63H410.52V270H404.678V246.63H392.992V240.787H422.205ZM455.336 246.63V258.315H431.966V270H426.123V240.787H449.494V246.63H431.966V252.472H449.494V246.63H455.336ZM490.407 240.787V246.63H467.036V240.787H490.407ZM467.036 246.63V252.472H484.564V258.315H467.036V264.157H461.194V246.63H467.036ZM467.036 264.157H490.407V270H467.036V264.157ZM525.477 246.63H507.95V240.787H525.477V246.63ZM507.95 246.63V264.157H502.107V246.63H507.95ZM531.32 246.63V270H525.477V246.63H531.32ZM502.107 264.157V270H496.265V264.157H502.107ZM566.368 240.787V270H560.525V258.315H548.84V264.157H542.998V258.315H537.155V246.63H542.998V252.472H560.525V246.63H542.998V240.787H566.368ZM542.998 264.157V270H537.155V264.157H542.998ZM599.499 240.787V246.63H587.814V270H581.971V246.63H570.286V240.787H599.499ZM632.63 252.472V264.157H626.787V258.315H609.259V264.157H603.417V240.787H609.259V252.472H632.63ZM626.787 264.157V270H609.259V264.157H626.787Z" fill="#00FF00"/>
</svg>
